<svg width="26" height="20" viewBox="0 0 26 20" fill="none" xmlns="http://www.w3.org/2000/svg">
<path id="Vector" d="M13.0235 11.3408C13.5063 11.3408 13.9538 11.1202 14.4719 10.6094L24.7165 0.615207C24.2808 0.19733 23.4683 0 22.3025 0H3.3442C2.35507 0 1.66032 0.185723 1.27173 0.568776L11.5751 10.6094C12.0815 11.1086 12.529 11.3408 13.0235 11.3408ZM0.294384 18.1312L8.61956 10.0174L0.270833 1.90366C0.0942029 2.22868 0 2.78585 0 3.58677V16.4016C0 17.2258 0.0942029 17.8062 0.294384 18.1312ZM3.69747 20H22.6558C23.6449 20 24.3279 19.8143 24.7165 19.4428L16.2264 11.155L15.4493 11.9327C14.6368 12.6989 13.8714 13.047 13.0235 13.047C12.164 13.047 11.3986 12.6989 10.5979 11.9327L9.80888 11.155L1.34239 19.4312C1.78986 19.8143 2.56703 20 3.69747 20ZM25.7174 18.1196C25.9057 17.783 26 17.2142 26 16.4016V3.58677C26 2.80907 25.9057 2.2519 25.741 1.93848L17.4157 10.0174L25.7174 18.1196Z" fill="#FBFBFB"/>
</svg>
