<svg width="25" height="25" viewBox="0 0 25 25" fill="none" xmlns="http://www.w3.org/2000/svg">
<path d="M7.36914 17.585C3.7002 13.9287 0.919922 9.51074 0.919922 5.86719C0.919922 4.25488 1.46582 2.79492 2.69727 1.61426C3.44629 0.890625 4.30957 0.509766 5.14746 0.509766C5.83301 0.509766 6.46777 0.776367 6.89941 1.38574L9.62891 5.23242C10.0605 5.8291 10.2637 6.32422 10.2637 6.78125C10.2637 7.36523 9.9209 7.87305 9.3623 8.45703L8.46094 9.38379C8.32129 9.52344 8.27051 9.68848 8.27051 9.85352C8.27051 10.0439 8.34668 10.2217 8.41016 10.3613C8.81641 11.1484 9.97168 12.4941 11.2158 13.7383C12.4727 14.9824 13.8184 16.1377 14.6055 16.5566C14.7324 16.6201 14.9229 16.6963 15.1133 16.6963C15.2783 16.6963 15.4561 16.6328 15.5957 16.4932L16.4971 15.6045C17.0811 15.0332 17.6016 14.7031 18.1729 14.7031C18.6299 14.7031 19.1377 14.9062 19.7217 15.3125L23.6191 18.0801C24.2158 18.5117 24.457 19.1211 24.457 19.7559C24.457 20.6191 24.0381 21.4951 23.3652 22.2441C22.21 23.5137 20.7754 24.085 19.1377 24.085C15.4941 24.085 11.0381 21.2539 7.36914 17.585Z" fill="#FBFBFB"/>
</svg>
