<svg width="163" height="171" viewBox="0 0 163 171" fill="none" xmlns="http://www.w3.org/2000/svg">
<rect x="0.5" y="0.5" width="162" height="170" stroke="#7A7A7A"/>
<mask id="mask0_1_306" style="mask-type:alpha" maskUnits="userSpaceOnUse" x="55" y="45" width="53" height="82">
<path d="M75.3681 54.4969H55.1356V126.083H75.3681V54.4969Z" fill="white"/>
<path d="M75.5095 126.235H55V54.3412H75.5095V126.238V126.235ZM55.2743 125.924H75.2297V54.6521H55.2743V125.927V125.924Z" fill="white"/>
<path d="M107.862 76.2981C107.862 93.3821 95.3365 107.441 80.1158 107.441V45.1556C95.3365 45.1556 107.862 59.2141 107.862 76.2981Z" fill="white"/>
<path d="M80.1156 107.596H79.9771V45H80.1156C87.5127 45 94.5025 48.2713 99.794 54.2106C105.086 60.1499 108 67.9922 108 76.2979C108 84.6036 105.086 92.446 99.794 98.3853C94.5025 104.325 87.5154 107.596 80.1156 107.596ZM80.2542 45.311V107.282C87.5265 107.241 94.3917 104.007 99.5973 98.1645C104.836 92.2843 107.723 84.5197 107.723 76.2979C107.723 68.0762 104.839 60.3116 99.5973 54.4314C94.3917 48.5885 87.5265 45.3545 80.2542 45.3141V45.311Z" fill="white"/>
</mask>
<g mask="url(#mask0_1_306)">
<rect width="159.914" height="130.799" transform="matrix(1 0 0 -1 0.172424 131.531)" fill="white"/>
</g>
</svg>
